<?xml version="1.0" standalone="no"?>
<!DOCTYPE svg PUBLIC "-//W3C//DTD SVG 20010904//EN"
 "http://www.w3.org/TR/2001/REC-SVG-20010904/DTD/svg10.dtd">
<svg version="1.0" xmlns="http://www.w3.org/2000/svg"
 width="241.000000pt" height="241.000000pt" viewBox="0 0 241.000000 241.000000"
 preserveAspectRatio="xMidYMid meet">
<metadata>
Created by potrace 1.14, written by Peter Selinger 2001-2017
</metadata>
<g transform="translate(0.000000,241.000000) scale(0.100000,-0.100000)"
fill="#000000" stroke="none">
<path d="M1000 2093 c-105 -12 -180 -29 -252 -55 -46 -17 -91 -31 -100 -31 -9
-1 -15 -5 -12 -8 2 -4 -1 -11 -7 -15 -7 -4 42 -60 127 -145 l139 -139 117 0
117 0 15 -28 c46 -88 186 -53 186 47 0 44 -20 75 -61 97 -39 20 -89 5 -122
-38 -24 -30 -24 -30 -127 -30 l-103 1 -69 68 c-37 37 -68 71 -68 74 0 4 15 12
34 19 33 11 42 13 126 30 65 13 245 5 315 -14 128 -35 253 -108 345 -200 51
-51 56 -54 72 -39 10 9 41 24 69 33 l51 18 -79 79 c-174 175 -384 268 -628
277 -33 1 -71 0 -85 -1z m257 -321 c6 -4 16 -19 22 -33 19 -52 -37 -89 -83
-56 -26 19 -18 68 14 84 29 15 31 15 47 5z"/>
<path d="M500 1904 c-135 -105 -252 -265 -304 -412 l-15 -42 27 -1 c15 0 263
-1 552 -1 l526 -1 47 49 47 48 156 1 c148 1 157 0 173 -21 38 -48 101 -53 139
-9 38 44 26 102 -27 129 -35 18 -68 11 -104 -23 -29 -26 -66 -34 -79 -16 -5 7
-8 6 -8 0 0 -7 -47 -11 -132 -10 l-133 1 -52 -49 -52 -49 -446 0 c-246 0 -449
3 -452 5 -3 3 3 21 14 39 53 96 159 215 235 265 21 14 38 29 38 32 0 8 -93
101 -100 100 -3 0 -25 -16 -50 -35z m1314 -316 c11 -19 2 -46 -19 -54 -19 -8
-45 13 -45 35 0 37 44 50 64 19z"/>
<path d="M2115 1693 c-52 -13 -90 -77 -76 -128 9 -35 8 -36 -70 -112 l-79 -78
-602 0 -603 -1 -70 -71 -70 -70 -129 -1 -129 0 7 51 c3 29 9 61 12 72 5 19 1
21 -70 20 l-75 0 -9 -54 c-5 -29 -9 -77 -8 -105 l1 -51 162 0 c143 0 160 -1
150 -15 -28 -37 -146 -150 -150 -143 -2 5 -7 25 -11 46 -5 29 -12 37 -29 38
-38 2 -119 0 -122 -3 -7 -8 36 -185 59 -246 54 -140 175 -300 302 -399 l41
-33 52 52 c56 56 60 64 34 72 -10 3 -45 30 -78 59 l-59 54 125 126 126 127
259 0 260 0 49 -50 50 -51 155 1 c85 1 162 1 171 0 9 0 19 -8 21 -17 3 -10 16
-24 31 -32 83 -45 169 68 102 134 -37 38 -88 37 -124 -3 l-24 -27 -156 -1
-155 -1 -52 48 -51 49 -279 0 -279 0 -130 -130 c-74 -74 -134 -126 -140 -122
-17 11 -55 69 -55 83 0 7 52 63 115 126 l115 114 632 0 632 -1 78 -77 c63 -62
77 -81 71 -98 -39 -112 105 -195 181 -104 70 83 -8 198 -114 169 -22 -6 -36 4
-113 79 l-88 86 -651 0 -650 0 -119 -119 c-66 -66 -121 -117 -124 -115 -2 3
-13 25 -24 49 l-20 45 114 115 115 115 750 0 c744 0 749 0 754 -20 7 -28 61
-81 94 -93 139 -48 266 118 178 233 -73 96 -202 87 -261 -17 l-20 -35 -714 0
-713 -1 44 45 45 45 604 0 604 0 86 87 c74 74 89 86 107 78 34 -15 88 1 116
34 68 80 -6 196 -109 172z m73 -70 c26 -37 -1 -93 -46 -93 -24 0 -61 46 -55
69 12 47 73 61 101 24z m58 -355 c68 -32 42 -140 -36 -155 -45 -8 -100 45 -96
92 3 30 28 63 57 73 25 10 38 8 75 -10z m-428 -447 c-5 -24 -34 -37 -52 -22
-23 19 -20 50 7 60 24 10 50 -12 45 -38z m378 2 c9 -33 -4 -54 -40 -66 -34
-11 -66 14 -66 53 0 64 91 75 106 13z"/>
<path d="M1189 722 c-18 -10 -37 -26 -43 -37 -6 -11 -14 -22 -18 -25 -4 -3
-57 -5 -118 -5 l-111 1 -126 -128 c-70 -70 -131 -124 -137 -121 -6 3 -8 3 -4
-2 4 -4 3 -14 -3 -22 -9 -10 2 -19 56 -44 115 -52 206 -71 350 -74 145 -4 216
8 350 56 143 52 318 183 410 309 l26 35 -51 6 c-27 4 -61 14 -73 22 -23 15
-25 13 -67 -35 -88 -102 -255 -201 -395 -233 -88 -21 -212 -24 -301 -9 -86 15
-154 35 -154 44 0 4 31 39 70 77 l69 70 106 0 c58 0 105 -3 105 -7 0 -4 14
-22 32 -39 44 -43 98 -43 138 -1 33 36 41 69 25 107 -24 57 -84 81 -136 55z
m88 -68 c19 -29 -4 -68 -42 -72 -51 -6 -77 62 -34 92 25 17 56 9 76 -20z"/>
</g>
</svg>
